<?xml version="1.0" encoding="utf-8" standalone="no"?>
<svg viewBox="0 0 624 526" version="1.1" xmlns="http://www.w3.org/2000/svg" xmlns:xlink="http://www.w3.org/1999/xlink" stroke-linecap="round" stroke-linejoin="round" fill-rule="evenodd" xml:space="preserve" >
<g fill="none" stroke="rgb(0,0,0)" stroke-width="0.78" >
<polygon points="174.047,455.372 174.047,490.518 174.047,490.535 174.046,490.649 174.045,490.762 174.042,490.876 174.037,490.989 174.032,491.102 174.026,491.215 174.018,491.328 174.01,491.442 174,491.554 173.989,491.667 173.977,491.78 173.964,491.893 173.949,492.005 173.934,492.117 173.917,492.23 173.9,492.342 173.881,492.453 173.861,492.565 173.84,492.677 173.818,492.788 173.795,492.899 173.77,493.009 173.745,493.12 173.718,493.23 173.691,493.34 173.662,493.45 173.632,493.559 173.601,493.668 173.569,493.777 173.536,493.885 173.502,493.994 173.466,494.101 173.43,494.209 173.392,494.316 173.354,494.422 173.314,494.529 173.274,494.634 173.232,494.74 173.189,494.845 173.146,494.95 173.101,495.054 173.055,495.157 173.008,495.261 172.96,495.363 172.911,495.466 172.861,495.567 172.81,495.669 172.758,495.769 172.705,495.87 172.651,495.969 172.596,496.069 172.54,496.167 172.483,496.265 172.425,496.363 172.366,496.459 172.306,496.556 172.245,496.651 172.184,496.746 172.121,496.841 172.057,496.935 171.993,497.028 171.927,497.12 171.861,497.212 171.793,497.303 171.725,497.394 171.656,497.484 171.586,497.573 171.515,497.661 171.443,497.749 171.37,497.836 171.296,497.922 171.222,498.008 171.147,498.092 171.07,498.176 170.993,498.26 170.916,498.342 170.837,498.424 170.757,498.505 170.677,498.585 170.596,498.664 170.514,498.743 170.432,498.82 170.348,498.897 170.264,498.973 170.179,499.048 170.093,499.122 170.007,499.196 169.92,499.268 169.832,499.34 169.744,499.411 169.654,499.481 169.564,499.55 169.474,499.618 169.382,499.685 169.29,499.751 169.198,499.817 169.104,499.881 169.01,499.945 168.916,500.007 168.821,500.069 168.725,500.129 168.628,500.189 168.531,500.248 168.434,500.305 168.336,500.362 168.237,500.418 168.138,500.473 168.038,500.527 167.938,500.579 167.837,500.631 167.735,500.682 167.633,500.732 167.531,500.78 167.428,500.828 167.325,500.875 167.221,500.92 167.117,500.965 167.012,501.009 166.907,501.051 166.801,501.093 166.696,501.133 166.589,501.172 166.482,501.211 166.375,501.248 166.268,501.284 166.16,501.319 166.052,501.353 165.943,501.386 165.834,501.418 165.725,501.448 165.616,501.478 165.506,501.507 165.396,501.534 165.286,501.56 165.175,501.585 165.065,501.61 164.953,501.633 164.842,501.654 164.731,501.675 164.619,501.695 164.507,501.713 164.395,501.731 164.283,501.747 164.171,501.762 164.058,501.776 163.945,501.789 163.833,501.801 163.72,501.812 163.607,501.821 163.494,501.83 163.381,501.837 163.267,501.843 163.154,501.848 163.041,501.852 162.927,501.855 162.814,501.857 162.701,501.857 162.587,501.856 162.474,501.855 162.361,501.852 162.247,501.848 162.134,501.842 162.021,501.836 161.908,501.829 161.795,501.82 161.682,501.81 161.569,501.8 161.456,501.788 161.343,501.775 161.231,501.76 161.119,501.745 161.006,501.729 160.894,501.711 160.783,501.692 160.671,501.672 160.559,501.651 160.448,501.629 160.337,501.606 160.226,501.582 160.116,501.557 160.006,501.53 159.896,501.503 159.786,501.474 159.677,501.444 159.568,501.413 159.459,501.381 159.35,501.348 159.242,501.314 159.134,501.279 159.027,501.243 158.92,501.205 158.813,501.167 158.707,501.127 158.601,501.087 158.496,501.045 158.391,501.003 158.286,500.959 158.182,500.914 158.078,500.868 157.975,500.822 157.872,500.774 157.77,500.725 157.668,500.675 157.566,500.624 157.466,500.572 157.365,500.519 157.266,500.465 157.166,500.41 157.068,500.354 156.97,500.297 156.872,500.24 156.775,500.181 156.679,500.121 156.583,500.06 156.488,499.998 156.444,499.969 154.082,498.402 151.736,496.811 149.406,495.196 147.092,493.559 144.794,491.898 142.514,490.215 140.25,488.509 138.004,486.78 135.775,485.029 133.563,483.256 131.37,481.46 129.194,479.643 127.037,477.804 124.898,475.944 122.778,474.062 120.677,472.159 118.595,470.236 116.532,468.291 114.489,466.326 112.466,464.341 110.462,462.336 108.479,460.311 106.516,458.265 104.574,456.201 102.652,454.117 100.752,452.014 98.8721,449.892 97.0139,447.752 95.1771,445.592 93.3621,443.415 91.5689,441.22 89.7978,439.007 88.0488,436.776 86.3223,434.528 84.6183,432.262 82.9371,429.98 81.2788,427.681 79.6435,425.366 78.0315,423.034 76.4429,420.686 74.8778,418.323 73.3365,415.944 71.819,413.55 70.3256,411.141 68.8563,408.716 67.4113,406.278 65.9907,403.825 64.5948,401.358 63.2236,398.877 61.8773,396.382 60.556,393.874 59.2599,391.353 57.989,388.82 56.7435,386.273 55.5236,383.715 54.3293,381.144 53.1608,378.561 52.0181,375.967 50.9014,373.362 49.8109,370.745 48.7466,368.118 47.7086,365.48 46.697,362.832 45.712,360.174 44.7536,357.507 43.8219,354.829 42.917,352.143 42.039,349.448 41.1881,346.744 40.3642,344.032 39.5675,341.311 38.798,338.583 38.0558,335.847 37.3411,333.104 36.6538,330.354 35.994,327.598 35.3618,324.834 34.7573,322.065 34.1805,319.29 33.6316,316.509 33.1104,313.722 32.6171,310.931 32.1518,308.135 31.7144,305.334 31.3051,302.529 30.9239,299.72 30.5707,296.908 30.2457,294.092 29.9489,291.273 29.6803,288.451 29.4399,285.626 29.2278,282.8 29.0439,279.971 28.8884,277.141 28.7611,274.309 28.6622,271.476 28.5916,268.642 28.5493,265.808 28.5354,262.973 28.5499,260.139 28.5927,257.304 28.6638,254.471 28.7632,251.638 28.891,248.806 29.0471,245.976 29.2315,243.147 29.4442,240.32 29.6851,237.496 29.9542,234.674 30.2516,231.855 30.5771,229.039 30.9308,226.227 31.3126,223.418 31.7224,220.613 32.1603,217.813 32.6262,215.016 33.12,212.225 33.6416,209.439 34.1912,206.658 34.7685,203.883 35.3735,201.114 36.0062,198.35 36.6664,195.594 37.3543,192.844 38.0695,190.101 38.8122,187.365 39.5822,184.637 40.3795,181.917 41.2038,179.205 42.0553,176.501 42.9338,173.806 43.8392,171.12 44.7714,168.443 45.7303,165.776 46.7158,163.118 47.7279,160.47 48.7664,157.832 49.8312,155.205 50.9222,152.589 52.0394,149.984 53.1825,147.39 54.3515,144.808 55.5463,142.237 56.7668,139.679 58.0127,137.133 59.2841,134.599 60.5807,132.078 61.9025,129.571 63.2492,127.076 64.6209,124.596 66.0173,122.129 67.4383,119.676 68.8837,117.238 70.3535,114.814 71.8474,112.405 73.3653,110.011 74.9071,107.632 76.4726,105.269 78.0617,102.922 79.6741,100.59 81.3098,98.2754 82.9686,95.9768 84.6502,93.6948 86.3546,91.4298 88.0816,89.182 89.8309,86.9515 91.6025,84.7387 93.3961,82.5437 95.2115,80.3667 97.0487,78.208 98.9073,76.0677 100.787,73.9462 102.688,71.8436 104.61,69.76 106.553,67.6958 108.516,65.6512 110.5,63.6262 112.504,61.6212 114.527,59.6364 116.571,57.6718 118.634,55.7278 120.716,53.8046 122.818,51.9022 124.938,50.021 127.077,48.1611 129.235,46.3226 131.411,44.5058 133.605,42.7109 135.817,40.938 138.046,39.1873 140.293,37.459 142.557,35.7532 144.838,34.0701 147.135,32.41 149.449,30.7729 151.78,29.159 154.126,27.5686 156.488,26.0016 156.502,25.9923 156.598,25.9307 156.693,25.8701 156.79,25.8104 156.887,25.7517 156.984,25.694 157.083,25.6372 157.181,25.5815 157.281,25.5267 157.38,25.4729 157.481,25.4201 157.582,25.3683 157.683,25.3176 157.785,25.2678 157.887,25.2191 157.99,25.1714 158.093,25.1247 158.197,25.0791 158.302,25.0345 158.406,24.991 158.511,24.9485 158.617,24.907 158.723,24.8666 158.829,24.8273 158.936,24.789 159.043,24.7518 159.15,24.7157 159.258,24.6807 159.367,24.6467 159.475,24.6138 159.584,24.582 159.693,24.5513 159.802,24.5217 159.912,24.4932 160.022,24.4658 160.133,24.4395 160.243,24.4143 160.354,24.3902 160.465,24.3672 160.576,24.3453 160.688,24.3245 160.799,24.3049 160.911,24.2864 161.023,24.2689 161.135,24.2526 161.248,24.2375 161.36,24.2234 161.473,24.2105 161.586,24.1987 161.699,24.188 161.812,24.1785 161.925,24.1701 162.038,24.1628 162.151,24.1567 162.264,24.1517 162.378,24.1478 162.491,24.1451 162.604,24.1434 162.718,24.143 162.831,24.1436 162.944,24.1454 163.058,24.1483 163.171,24.1524 163.284,24.1576 163.398,24.1639 163.511,24.1714 163.624,24.18 163.737,24.1897 163.85,24.2005 163.962,24.2125 164.075,24.2256 164.187,24.2398 164.3,24.2552 164.412,24.2716 164.524,24.2892 164.636,24.3079 164.747,24.3278 164.859,24.3487 164.97,24.3708 165.081,24.3939 165.192,24.4182 165.302,24.4436 165.413,24.4701 165.523,24.4977 165.632,24.5264 165.742,24.5562 165.851,24.587 165.96,24.619 166.068,24.6521 166.176,24.6862 166.284,24.7214 166.391,24.7577 166.498,24.7951 166.605,24.8335 166.711,24.873 166.817,24.9135 166.923,24.9552 167.028,24.9978 167.132,25.0415 167.237,25.0863 167.34,25.1321 167.444,25.1789 167.546,25.2268 167.649,25.2757 167.75,25.3256 167.852,25.3765 167.953,25.4285 168.053,25.4814 168.153,25.5353 168.252,25.5903 168.35,25.6462 168.448,25.7031 168.546,25.761 168.643,25.8198 168.739,25.8797 168.835,25.9405 168.93,26.0022 169.025,26.0649 169.118,26.1285 169.212,26.1931 169.304,26.2586 169.396,26.325 169.487,26.3923 169.578,26.4605 169.668,26.5297 169.757,26.5997 169.845,26.6707 169.933,26.7425 170.02,26.8151 170.106,26.8887 170.192,26.9631 170.277,27.0383 170.361,27.1144 170.444,27.1914 170.527,27.2692 170.608,27.3477 170.689,27.4271 170.769,27.5074 170.849,27.5884 170.927,27.6702 171.005,27.7527 171.082,27.8361 171.158,27.9202 171.233,28.0051 171.307,28.0907 171.381,28.177 171.453,28.2641 171.525,28.3519 171.596,28.4404 171.666,28.5297 171.735,28.6196 171.803,28.7102 171.871,28.8015 171.937,28.8934 172.002,28.986 172.067,29.0793 172.13,29.1732 172.193,29.2677 172.255,29.3629 172.315,29.4586 172.375,29.555 172.434,29.652 172.492,29.7495 172.549,29.8476 172.604,29.9463 172.659,30.0455 172.713,30.1453 172.766,30.2456 172.818,30.3465 172.869,30.4478 172.918,30.5497 172.967,30.652 173.015,30.7548 173.062,30.8581 173.108,30.9619 173.152,31.0661 173.196,31.1707 173.238,31.2758 173.28,31.3813 173.32,31.4873 173.36,31.5936 173.398,31.7003 173.435,31.8074 173.472,31.9148 173.507,32.0226 173.541,32.1308 173.574,32.2393 173.606,32.3481 173.636,32.4572 173.666,32.5666 173.695,32.6763 173.722,32.7863 173.749,32.8966 173.774,33.0071 173.798,33.1179 173.821,33.2289 173.843,33.3402 173.864,33.4516 173.884,33.5633 173.902,33.6751 173.92,33.7871 173.936,33.8993 173.952,34.0117 173.966,34.1242 173.979,34.2368 173.991,34.3496 174.001,34.4624 174.011,34.5754 174.019,34.6885 174.027,34.8016 174.033,34.9149 174.038,35.0281 174.042,35.1414 174.045,35.2548 174.047,35.3682 174.047,35.4815 174.047,70.6278 174.048,70.7412 174.05,70.8545 174.052,70.9679 174.056,71.0812 174.061,71.1945 174.068,71.3077 174.075,71.4208 174.084,71.5339 174.093,71.6469 174.104,71.7598 174.116,71.8725 174.129,71.9852 174.143,72.0977 174.158,72.21 174.175,72.3222 174.192,72.4342 174.211,72.5461 174.23,72.6577 174.251,72.7692 174.273,72.8804 174.296,72.9914 174.321,73.1022 174.346,73.2127 174.372,73.323 174.4,73.433 174.428,73.5427 174.458,73.6521 174.489,73.7613 174.521,73.8701 174.554,73.9786 174.588,74.0867 174.623,74.1945 174.659,74.302 174.696,74.4091 174.735,74.5158 174.774,74.6221 174.815,74.728 174.856,74.8335 174.899,74.9386 174.942,75.0432 174.987,75.1475 175.033,75.2512 175.079,75.3545 175.127,75.4573 175.176,75.5597 175.226,75.6615 175.277,75.7629 175.329,75.8637 175.381,75.964 175.435,76.0638 175.49,76.163 175.546,76.2617 175.603,76.3598 175.661,76.4574 175.719,76.5543 175.779,76.6507 175.84,76.7465 175.902,76.8416 175.964,76.9361 176.028,77.03 176.092,77.1233 176.158,77.2159 176.224,77.3079 176.291,77.3991 176.359,77.4897 176.428,77.5797 176.498,77.6689 176.569,77.7574 176.641,77.8452 176.714,77.9323 176.787,78.0187 176.861,78.1043 176.937,78.1891 177.013,78.2733 177.09,78.3566 177.167,78.4392 177.246,78.521 177.325,78.602 177.405,78.6822 177.486,78.7616 177.568,78.8402 177.65,78.9179 177.734,78.9949 177.818,79.071 177.903,79.1462 177.988,79.2207 178.074,79.2942 178.161,79.3669 178.249,79.4387 178.338,79.5096 178.427,79.5796 178.517,79.6488 178.607,79.717 178.698,79.7844 178.79,79.8508 178.883,79.9163 178.976,79.9808 179.07,80.0445 179.164,80.1071 179.26,80.1689 179.355,80.2297 179.452,80.2895 179.549,80.3483 179.646,80.4062 179.744,80.4631 179.843,80.5191 179.942,80.574 180.042,80.6279 180.142,80.6809 180.243,80.7328 180.344,80.7837 180.446,80.8337 180.548,80.8825 180.651,80.9304 180.754,80.9772 180.858,81.023 180.962,81.0678 181.067,81.1115 181.172,81.1542 181.277,81.1958 181.383,81.2364 181.489,81.2758 181.596,81.3143 181.703,81.3516 181.811,81.3879 181.918,81.4231 182.026,81.4573 182.135,81.4903 182.244,81.5223 182.353,81.5532 182.462,81.583 182.572,81.6116 182.682,81.6392 182.792,81.6657 182.903,81.6911 183.013,81.7154 183.124,81.7386 183.236,81.7606 183.347,81.7816 183.459,81.8014 183.57,81.8201 183.682,81.8377 183.795,81.8542 183.907,81.8695 184.019,81.8837 184.132,81.8968 184.245,81.9088 184.358,81.9197 184.471,81.9294 184.584,81.938 184.697,81.9454 184.81,81.9517 184.923,81.9569 185.037,81.961 185.15,81.9639 185.263,81.9657 185.377,81.9664 185.386,81.9664 438.614,81.9664 438.728,81.9658 438.841,81.9641 438.954,81.9613 439.068,81.9573 439.181,81.9522 439.294,81.946 439.407,81.9386 439.52,81.9301 439.633,81.9205 439.746,81.9097 439.859,81.8978 439.972,81.8848 440.084,81.8707 440.196,81.8554 440.309,81.8391 440.421,81.8215 440.532,81.8029 440.644,81.7832 440.756,81.7623 440.867,81.7404 440.978,81.7173 441.089,81.6931 441.199,81.6678 441.309,81.6414 441.419,81.6139 441.529,81.5853 441.639,81.5556 441.748,81.5248 441.856,81.4929 441.965,81.46 442.073,81.4259 442.181,81.3908 442.288,81.3546 442.395,81.3173 442.502,81.2789 442.608,81.2395 442.714,81.1991 442.82,81.1575 442.925,81.1149 443.03,81.0713 443.134,81.0266 443.238,80.9809 443.341,80.9342 443.444,80.8864 443.546,80.8376 443.648,80.7878 443.749,80.7369 443.85,80.6851 443.95,80.6322 444.05,80.5783 444.149,80.5235 444.248,80.4676 444.346,80.4108 444.444,80.353 444.541,80.2942 444.637,80.2345 444.733,80.1738 444.828,80.1121 444.923,80.0495 445.016,79.9859 445.11,79.9214 445.202,79.856 445.294,79.7897 445.386,79.7224 445.476,79.6543 445.566,79.5852 445.655,79.5152 445.744,79.4444 445.832,79.3726 445.919,79.3 446.005,79.2265 446.091,79.1522 446.176,79.077 446.26,79.001 446.343,78.9241 446.426,78.8464 446.507,78.7679 446.588,78.6885 446.669,78.6084 446.748,78.5275 446.827,78.4457 446.904,78.3632 446.981,78.2799 447.057,78.1959 447.133,78.1111 447.207,78.0255 447.281,77.9392 447.353,77.8522 447.425,77.7644 447.496,77.676 447.566,77.5868 447.635,77.4969 447.703,77.4064 447.771,77.3152 447.837,77.2233 447.903,77.1307 447.967,77.0375 448.031,76.9436 448.094,76.8492 448.155,76.7541 448.216,76.6583 448.276,76.562 448.335,76.4651 448.393,76.3676 448.45,76.2695 448.505,76.1709 448.56,76.0717 448.614,75.972 448.667,75.8717 448.719,75.7709 448.77,75.6696 448.82,75.5678 448.869,75.4655 448.917,75.3627 448.964,75.2595 449.009,75.1557 449.054,75.0516 449.098,74.9469 449.141,74.8419 449.182,74.7364 449.223,74.6305 449.262,74.5242 449.301,74.4176 449.338,74.3105 449.374,74.2031 449.41,74.0953 449.444,73.9872 449.477,73.8787 449.509,73.7699 449.54,73.6608 449.569,73.5514 449.598,73.4417 449.626,73.3318 449.652,73.2215 449.677,73.111 449.702,73.0003 449.725,72.8893 449.747,72.778 449.768,72.6666 449.788,72.555 449.806,72.4431 449.824,72.3311 449.841,72.219 449.856,72.1066 449.87,71.9941 449.883,71.8815 449.895,71.7687 449.906,71.6559 449.916,71.5429 449.924,71.4299 449.932,71.3167 449.938,71.2035 449.943,71.0902 449.947,70.9769 449.95,70.8636 449.952,70.7502 449.953,70.6368 449.953,70.6278 449.953,35.4815 449.953,35.4646 449.954,35.3512 449.955,35.2378 449.958,35.1245 449.963,35.0111 449.968,34.8979 449.974,34.7847 449.982,34.6715 449.99,34.5585 450,34.4455 450.011,34.3327 450.023,34.2199 450.036,34.1073 450.051,33.9948 450.066,33.8825 450.083,33.7703 450.1,33.6583 450.119,33.5465 450.139,33.4349 450.16,33.3235 450.182,33.2123 450.205,33.1013 450.23,32.9906 450.255,32.8801 450.282,32.7698 450.309,32.6599 450.338,32.5502 450.368,32.4408 450.399,32.3317 450.431,32.223 450.464,32.1145 450.498,32.0064 450.534,31.8987 450.57,31.7913 450.608,31.6843 450.646,31.5776 450.686,31.4714 450.726,31.3655 450.768,31.2601 450.811,31.155 450.854,31.0504 450.899,30.9463 450.945,30.8426 450.992,30.7394 451.04,30.6366 451.089,30.5344 451.139,30.4326 451.19,30.3313 451.242,30.2306 451.295,30.1303 451.349,30.0306 451.404,29.9315 451.46,29.8329 451.517,29.7349 451.575,29.6374 451.634,29.5405 451.694,29.4443 451.755,29.3486 451.816,29.2535 451.879,29.1591 451.943,29.0653 452.007,28.9721 452.073,28.8796 452.139,28.7878 452.207,28.6966 452.275,28.6061 452.344,28.5163 452.414,28.4271 452.485,28.3387 452.557,28.251 452.63,28.164 452.704,28.0778 452.778,27.9923 452.853,27.9075 452.93,27.8235 453.007,27.7403 453.084,27.6578 453.163,27.5762 453.243,27.4953 453.323,27.4152 453.404,27.3359 453.486,27.2574 453.568,27.1798 453.652,27.103 453.736,27.027 453.821,26.9519 453.907,26.8776 453.993,26.8042 454.08,26.7316 454.168,26.66 454.256,26.5892 454.346,26.5193 454.436,26.4503 454.526,26.3822 454.618,26.315 454.71,26.2487 454.802,26.1833 454.896,26.1189 454.99,26.0554 455.084,25.9929 455.179,25.9313 455.275,25.8706 455.372,25.811 455.469,25.7523 455.566,25.6945 455.664,25.6378 455.763,25.582 455.862,25.5272 455.962,25.4734 456.062,25.4206 456.163,25.3688 456.265,25.318 456.367,25.2683 456.469,25.2196 456.572,25.1718 456.675,25.1252 456.779,25.0795 456.883,25.0349 456.988,24.9914 457.093,24.9489 457.199,24.9074 457.304,24.867 457.411,24.8277 457.518,24.7894 457.625,24.7522 457.732,24.7161 457.84,24.681 457.948,24.647 458.057,24.6141 458.166,24.5823 458.275,24.5516 458.384,24.522 458.494,24.4935 458.604,24.4661 458.714,24.4397 458.825,24.4145 458.935,24.3904 459.047,24.3674 459.158,24.3455 459.269,24.3247 459.381,24.3051 459.493,24.2865 459.605,24.2691 459.717,24.2528 459.829,24.2376 459.942,24.2236 460.055,24.2106 460.167,24.1988 460.28,24.1881 460.393,24.1786 460.506,24.1702 460.619,24.1629 460.733,24.1567 460.846,24.1517 460.959,24.1478 461.073,24.1451 461.186,24.1435 461.299,24.143 461.413,24.1436 461.526,24.1454 461.639,24.1483 461.753,24.1524 461.866,24.1575 461.979,24.1638 462.092,24.1713 462.205,24.1799 462.318,24.1896 462.431,24.2004 462.544,24.2124 462.657,24.2255 462.769,24.2397 462.881,24.255 462.994,24.2715 463.106,24.2891 463.217,24.3078 463.329,24.3276 463.441,24.3485 463.552,24.3706 463.663,24.3937 463.774,24.418 463.884,24.4434 463.994,24.4698 464.104,24.4974 464.214,24.5261 464.323,24.5559 464.432,24.5867 464.541,24.6187 464.65,24.6517 464.758,24.6859 464.866,24.7211 464.973,24.7573 465.08,24.7947 465.187,24.8331 465.293,24.8726 465.399,24.9132 465.504,24.9548 465.609,24.9974 465.714,25.0411 465.818,25.0859 465.922,25.1317 466.025,25.1785 466.128,25.2263 466.23,25.2752 466.332,25.3251 466.434,25.376 466.534,25.428 466.635,25.4809 466.734,25.5348 466.834,25.5897 466.932,25.6457 467.03,25.7026 467.128,25.7604 467.225,25.8193 467.321,25.8791 467.417,25.9399 467.512,26.0016 467.556,26.0309 469.918,27.5983 472.264,29.1892 474.594,30.8035 476.908,32.4411 479.206,34.1016 481.486,35.7851 483.75,37.4913 485.996,39.2201 488.225,40.9712 490.437,42.7445 492.63,44.5399 494.806,46.357 496.963,48.1959 499.102,50.0562 501.222,51.9379 503.323,53.8406 505.405,55.7643 507.468,57.7087 509.511,59.6736 511.534,61.6588 513.538,63.6642 515.521,65.6895 517.484,67.7345 519.426,69.7991 521.348,71.883 523.248,73.986 525.128,76.1079 526.986,78.2485 528.823,80.4075 530.638,82.5849 532.431,84.7802 534.202,86.9934 535.951,89.2242 537.678,91.4724 539.382,93.7377 541.063,96.0199 542.721,98.3189 544.356,100.634 545.968,102.966 547.557,105.314 549.122,107.677 550.664,110.056 552.181,112.45 553.674,114.859 555.144,117.284 556.589,119.722 558.009,122.175 559.405,124.642 560.776,127.123 562.123,129.618 563.444,132.126 564.74,134.647 566.011,137.18 567.256,139.727 568.476,142.285 569.671,144.856 570.839,147.439 571.982,150.033 573.099,152.638 574.189,155.255 575.253,157.882 576.291,160.52 577.303,163.168 578.288,165.826 579.246,168.493 580.178,171.171 581.083,173.857 581.961,176.552 582.812,179.256 583.636,181.968 584.433,184.689 585.202,187.417 585.944,190.153 586.659,192.896 587.346,195.646 588.006,198.402 588.638,201.166 589.243,203.935 589.819,206.71 590.368,209.491 590.89,212.278 591.383,215.069 591.848,217.865 592.286,220.666 592.695,223.471 593.076,226.28 593.429,229.092 593.754,231.908 594.051,234.727 594.32,237.549 594.56,240.374 594.772,243.2 594.956,246.029 595.112,248.859 595.239,251.691 595.338,254.524 595.408,257.358 595.451,260.192 595.465,263.027 595.45,265.861 595.407,268.696 595.336,271.529 595.237,274.362 595.109,277.194 594.953,280.024 594.768,282.853 594.556,285.68 594.315,288.504 594.046,291.326 593.748,294.145 593.423,296.961 593.069,299.773 592.687,302.582 592.278,305.387 591.84,308.187 591.374,310.984 590.88,313.775 590.358,316.561 589.809,319.342 589.232,322.117 588.627,324.886 587.994,327.65 587.334,330.406 586.646,333.156 585.93,335.899 585.188,338.635 584.418,341.363 583.621,344.083 582.796,346.795 581.945,349.499 581.066,352.194 580.161,354.88 579.229,357.557 578.27,360.224 577.284,362.882 576.272,365.53 575.234,368.168 574.169,370.795 573.078,373.411 571.961,376.016 570.817,378.61 569.648,381.192 568.454,383.763 567.233,386.321 565.987,388.867 564.716,391.401 563.419,393.922 562.098,396.429 560.751,398.924 559.379,401.404 557.983,403.871 556.562,406.324 555.116,408.762 553.647,411.186 552.153,413.595 550.635,415.989 549.093,418.368 547.527,420.731 545.938,423.078 544.326,425.41 542.69,427.725 541.031,430.023 539.35,432.305 537.645,434.57 535.918,436.818 534.169,439.048 532.398,441.261 530.604,443.456 528.788,445.633 526.951,447.792 525.093,449.932 523.213,452.054 521.312,454.156 519.39,456.24 517.447,458.304 515.484,460.349 513.5,462.374 511.496,464.379 509.473,466.364 507.429,468.328 505.366,470.272 503.284,472.195 501.182,474.098 499.062,475.979 496.923,477.839 494.765,479.677 492.589,481.494 490.395,483.289 488.183,485.062 485.954,486.813 483.707,488.541 481.443,490.247 479.162,491.93 476.865,493.59 474.551,495.227 472.22,496.841 469.874,498.431 467.512,499.998 467.498,500.008 467.402,500.069 467.307,500.13 467.21,500.19 467.113,500.248 467.016,500.306 466.917,500.363 466.819,500.419 466.719,500.473 466.62,500.527 466.519,500.58 466.418,500.632 466.317,500.682 466.215,500.732 466.113,500.781 466.01,500.829 465.907,500.875 465.803,500.921 465.698,500.965 465.594,501.009 465.489,501.052 465.383,501.093 465.277,501.133 465.171,501.173 465.064,501.211 464.957,501.248 464.85,501.284 464.742,501.319 464.633,501.353 464.525,501.386 464.416,501.418 464.307,501.449 464.198,501.478 464.088,501.507 463.978,501.534 463.867,501.561 463.757,501.586 463.646,501.61 463.535,501.633 463.424,501.655 463.312,501.675 463.201,501.695 463.089,501.714 462.977,501.731 462.865,501.747 462.752,501.763 462.64,501.777 462.527,501.789 462.414,501.801 462.301,501.812 462.188,501.821 462.075,501.83 461.962,501.837 461.849,501.843 461.736,501.848 461.622,501.852 461.509,501.855 461.396,501.857 461.282,501.857 461.169,501.856 461.056,501.855 460.942,501.852 460.829,501.848 460.716,501.842 460.602,501.836 460.489,501.829 460.376,501.82 460.263,501.81 460.15,501.799 460.038,501.788 459.925,501.774 459.813,501.76 459.7,501.745 459.588,501.728 459.476,501.711 459.364,501.692 459.253,501.672 459.141,501.651 459.03,501.629 458.919,501.606 458.808,501.582 458.698,501.556 458.587,501.53 458.477,501.502 458.368,501.474 458.258,501.444 458.149,501.413 458.04,501.381 457.932,501.348 457.824,501.314 457.716,501.279 457.609,501.242 457.502,501.205 457.395,501.167 457.289,501.127 457.183,501.086 457.077,501.045 456.972,501.002 456.868,500.958 456.763,500.914 456.66,500.868 456.556,500.821 456.454,500.773 456.351,500.724 456.25,500.674 456.148,500.623 456.047,500.572 455.947,500.519 455.847,500.465 455.748,500.41 455.65,500.354 455.552,500.297 455.454,500.239 455.357,500.18 455.261,500.12 455.165,500.06 455.07,499.998 454.975,499.935 454.882,499.871 454.788,499.807 454.696,499.741 454.604,499.675 454.513,499.608 454.422,499.539 454.332,499.47 454.243,499.4 454.155,499.329 454.067,499.258 453.98,499.185 453.894,499.111 453.808,499.037 453.723,498.962 453.639,498.886 453.556,498.809 453.473,498.731 453.392,498.652 453.311,498.573 453.231,498.493 453.151,498.412 453.073,498.33 452.995,498.247 452.918,498.164 452.842,498.08 452.767,497.995 452.693,497.909 452.619,497.823 452.547,497.736 452.475,497.648 452.404,497.56 452.334,497.47 452.265,497.38 452.197,497.29 452.129,497.199 452.063,497.107 451.998,497.014 451.933,496.921 451.87,496.827 451.807,496.732 451.745,496.637 451.685,496.541 451.625,496.445 451.566,496.348 451.508,496.25 451.451,496.152 451.396,496.054 451.341,495.954 451.287,495.855 451.234,495.754 451.182,495.654 451.131,495.552 451.082,495.45 451.033,495.348 450.985,495.245 450.938,495.142 450.892,495.038 450.848,494.934 450.804,494.829 450.762,494.724 450.72,494.619 450.68,494.513 450.64,494.406 450.602,494.3 450.565,494.193 450.528,494.085 450.493,493.977 450.459,493.869 450.426,493.761 450.394,493.652 450.364,493.543 450.334,493.433 450.305,493.324 450.278,493.214 450.251,493.103 450.226,492.993 450.202,492.882 450.179,492.771 450.157,492.66 450.136,492.548 450.116,492.437 450.098,492.325 450.08,492.213 450.064,492.101 450.048,491.988 450.034,491.876 450.021,491.763 450.009,491.65 449.999,491.538 449.989,491.425 449.981,491.312 449.973,491.198 449.967,491.085 449.962,490.972 449.958,490.859 449.955,490.745 449.953,490.632 449.953,490.518 449.953,455.372 449.952,455.259 449.95,455.145 449.948,455.032 449.944,454.919 449.939,454.806 449.932,454.692 449.925,454.579 449.916,454.466 449.907,454.353 449.896,454.24 449.884,454.127 449.871,454.015 449.857,453.902 449.842,453.79 449.825,453.678 449.808,453.566 449.789,453.454 449.77,453.342 449.749,453.231 449.727,453.12 449.704,453.009 449.679,452.898 449.654,452.787 449.628,452.677 449.6,452.567 449.572,452.457 449.542,452.348 449.511,452.239 449.479,452.13 449.446,452.021 449.412,451.913 449.377,451.805 449.341,451.698 449.304,451.591 449.265,451.484 449.226,451.378 449.185,451.272 449.144,451.166 449.101,451.061 449.058,450.957 449.013,450.853 448.967,450.749 448.921,450.645 448.873,450.543 448.824,450.44 448.774,450.338 448.723,450.237 448.671,450.136 448.619,450.036 448.565,449.936 448.51,449.837 448.454,449.738 448.397,449.64 448.339,449.543 448.281,449.446 448.221,449.349 448.16,449.254 448.098,449.158 448.036,449.064 447.972,448.97 447.908,448.877 447.842,448.784 447.776,448.692 447.709,448.601 447.641,448.51 447.572,448.42 447.502,448.331 447.431,448.243 447.359,448.155 447.286,448.068 447.213,447.981 447.139,447.896 447.063,447.811 446.987,447.727 446.91,447.643 446.833,447.561 446.754,447.479 446.675,447.398 446.595,447.318 446.514,447.238 446.432,447.16 446.35,447.082 446.266,447.005 446.182,446.929 446.097,446.854 446.012,446.779 445.926,446.706 445.839,446.633 445.751,446.561 445.662,446.49 445.573,446.42 445.483,446.351 445.393,446.283 445.302,446.216 445.21,446.149 445.117,446.084 445.024,446.019 444.93,445.956 444.836,445.893 444.74,445.831 444.645,445.77 444.548,445.711 444.451,445.652 444.354,445.594 444.256,445.537 444.157,445.481 444.058,445.426 443.958,445.372 443.858,445.319 443.757,445.267 443.656,445.216 443.554,445.166 443.452,445.117 443.349,445.07 443.246,445.023 443.142,444.977 443.038,444.932 442.933,444.888 442.828,444.846 442.723,444.804 442.617,444.764 442.511,444.724 442.404,444.686 442.297,444.648 442.189,444.612 442.082,444.577 441.974,444.543 441.865,444.51 441.756,444.478 441.647,444.447 441.538,444.417 441.428,444.388 441.318,444.361 441.208,444.334 441.097,444.309 440.987,444.285 440.876,444.261 440.764,444.239 440.653,444.218 440.541,444.199 440.43,444.18 440.318,444.162 440.205,444.146 440.093,444.13 439.981,444.116 439.868,444.103 439.755,444.091 439.642,444.08 439.529,444.071 439.416,444.062 439.303,444.055 439.19,444.048 439.077,444.043 438.963,444.039 438.85,444.036 438.737,444.034 438.623,444.034 438.614,444.034 185.386,444.034 185.272,444.034 185.159,444.036 185.046,444.039 184.932,444.043 184.819,444.048 184.706,444.054 184.593,444.061 184.48,444.07 184.367,444.08 184.254,444.09 184.141,444.102 184.028,444.115 183.916,444.129 183.804,444.145 183.691,444.161 183.579,444.178 183.468,444.197 183.356,444.217 183.244,444.238 183.133,444.26 183.022,444.283 182.911,444.307 182.801,444.332 182.691,444.359 182.581,444.386 182.471,444.415 182.361,444.444 182.252,444.475 182.144,444.507 182.035,444.54 181.927,444.574 181.819,444.609 181.712,444.645 181.605,444.683 181.498,444.721 181.392,444.76 181.286,444.801 181.18,444.842 181.075,444.885 180.97,444.929 180.866,444.973 180.762,445.019 180.659,445.066 180.556,445.114 180.454,445.162 180.352,445.212 180.251,445.263 180.15,445.315 180.05,445.368 179.95,445.422 179.851,445.477 179.752,445.532 179.654,445.589 179.556,445.647 179.459,445.706 179.363,445.766 179.267,445.826 179.172,445.888 179.077,445.951 178.984,446.014 178.89,446.079 178.798,446.144 178.706,446.21 178.614,446.278 178.524,446.346 178.434,446.415 178.345,446.485 178.256,446.556 178.168,446.627 178.081,446.7 177.995,446.773 177.909,446.848 177.824,446.923 177.74,446.999 177.657,447.076 177.574,447.154 177.493,447.232 177.412,447.311 177.331,447.392 177.252,447.473 177.173,447.554 177.096,447.637 177.019,447.72 176.943,447.804 176.867,447.889 176.793,447.974 176.719,448.061 176.647,448.148 176.575,448.236 176.504,448.324 176.434,448.413 176.365,448.503 176.297,448.594 176.229,448.685 176.163,448.777 176.097,448.869 176.033,448.963 175.969,449.056 175.906,449.151 175.845,449.246 175.784,449.342 175.724,449.438 175.665,449.535 175.607,449.632 175.55,449.73 175.495,449.829 175.44,449.928 175.386,450.028 175.333,450.128 175.281,450.229 175.23,450.33 175.18,450.432 175.131,450.534 175.083,450.637 175.036,450.741 174.991,450.844 174.946,450.948 174.902,451.053 174.859,451.158 174.818,451.264 174.777,451.369 174.738,451.476 174.699,451.582 174.662,451.689 174.626,451.797 174.59,451.905 174.556,452.013 174.523,452.121 174.491,452.23 174.46,452.339 174.431,452.449 174.402,452.558 174.374,452.668 174.348,452.778 174.323,452.889 174.298,453 174.275,453.111 174.253,453.222 174.232,453.333 174.212,453.445 174.194,453.557 174.176,453.669 174.159,453.781 174.144,453.893 174.13,454.006 174.117,454.119 174.105,454.231 174.094,454.344 174.084,454.457 174.076,454.57 174.068,454.683 174.062,454.796 174.057,454.91 174.053,455.023 174.05,455.136 174.048,455.25 174.047,455.363 " />
<polygon points="487.748,348.039 506.646,348.039 506.646,376.386 487.748,376.386 " />
<polygon points="487.748,177.961 506.646,177.961 506.646,149.614 487.748,149.614 " />
<polygon points="209.953,376.386 191.055,376.386 191.055,348.039 209.953,348.039 " />
<polygon points="209.953,149.614 191.055,149.614 191.055,177.961 209.953,177.961 " />
</g>
</svg>
